<mxfile host="app.diagrams.net" modified="2022-04-13T12:32:21.984Z" agent="5.0 (Windows NT 10.0; Win64; x64) AppleWebKit/537.36 (KHTML, like Gecko) Chrome/100.0.4896.75 Safari/537.36 Edg/100.0.1185.36" etag="qQmHQ4CJ4aZybnouY_FL" version="17.4.3" type="github">
  <diagram id="wh8e0AfhXRtJmM7Nm8Zx" name="Page-1">
    <mxGraphModel dx="1730" dy="965" grid="1" gridSize="10" guides="1" tooltips="1" connect="1" arrows="1" fold="1" page="1" pageScale="1" pageWidth="827" pageHeight="1169" math="0" shadow="0">
      <root>
        <mxCell id="0" />
        <mxCell id="1" parent="0" />
        <mxCell id="8KLHfao8B2fxPnTa-pXK-19" style="edgeStyle=orthogonalEdgeStyle;rounded=0;orthogonalLoop=1;jettySize=auto;html=1;exitX=1;exitY=0.5;exitDx=0;exitDy=0;entryX=0;entryY=0.5;entryDx=0;entryDy=0;fontSize=18;" edge="1" parent="1" source="8KLHfao8B2fxPnTa-pXK-4" target="8KLHfao8B2fxPnTa-pXK-7">
          <mxGeometry relative="1" as="geometry" />
        </mxCell>
        <mxCell id="8KLHfao8B2fxPnTa-pXK-4" value="&lt;font style=&quot;font-size: 18px&quot;&gt;&lt;b&gt;getdents&lt;/b&gt;&lt;/font&gt;" style="ellipse;whiteSpace=wrap;html=1;" vertex="1" parent="1">
          <mxGeometry x="40" y="200" width="160" height="80" as="geometry" />
        </mxCell>
        <mxCell id="8KLHfao8B2fxPnTa-pXK-5" value="&lt;span style=&quot;font-size: 18px&quot;&gt;&lt;b&gt;fdget_pos&lt;/b&gt;&lt;/span&gt;" style="ellipse;whiteSpace=wrap;html=1;" vertex="1" parent="1">
          <mxGeometry x="240" y="90" width="160" height="80" as="geometry" />
        </mxCell>
        <mxCell id="8KLHfao8B2fxPnTa-pXK-6" value="&lt;span style=&quot;font-size: 18px&quot;&gt;&lt;b&gt;fdput_pos&lt;/b&gt;&lt;/span&gt;" style="ellipse;whiteSpace=wrap;html=1;" vertex="1" parent="1">
          <mxGeometry x="240" y="320" width="160" height="80" as="geometry" />
        </mxCell>
        <mxCell id="8KLHfao8B2fxPnTa-pXK-7" value="&lt;span style=&quot;font-size: 18px&quot;&gt;&lt;b&gt;iterate_dir&lt;/b&gt;&lt;/span&gt;" style="ellipse;whiteSpace=wrap;html=1;" vertex="1" parent="1">
          <mxGeometry x="240" y="200" width="160" height="80" as="geometry" />
        </mxCell>
        <mxCell id="8KLHfao8B2fxPnTa-pXK-8" value="&lt;span style=&quot;font-size: 18px&quot;&gt;&lt;b&gt;file_inode&lt;/b&gt;&lt;/span&gt;" style="ellipse;whiteSpace=wrap;html=1;" vertex="1" parent="1">
          <mxGeometry x="470" y="30" width="160" height="80" as="geometry" />
        </mxCell>
        <mxCell id="8KLHfao8B2fxPnTa-pXK-9" value="&lt;span style=&quot;font-size: 18px&quot;&gt;&lt;b&gt;security_file_&lt;br&gt;permission&lt;/b&gt;&lt;/span&gt;" style="ellipse;whiteSpace=wrap;html=1;" vertex="1" parent="1">
          <mxGeometry x="470" y="150" width="160" height="80" as="geometry" />
        </mxCell>
        <mxCell id="8KLHfao8B2fxPnTa-pXK-10" value="&lt;span style=&quot;font-size: 18px&quot;&gt;&lt;b&gt;down_read_&lt;br&gt;killable&lt;/b&gt;&lt;/span&gt;" style="ellipse;whiteSpace=wrap;html=1;" vertex="1" parent="1">
          <mxGeometry x="470" y="260" width="160" height="80" as="geometry" />
        </mxCell>
        <mxCell id="8KLHfao8B2fxPnTa-pXK-11" value="&lt;span style=&quot;font-size: 18px&quot;&gt;&lt;b&gt;down_write_&lt;br&gt;killable&lt;/b&gt;&lt;/span&gt;" style="ellipse;whiteSpace=wrap;html=1;" vertex="1" parent="1">
          <mxGeometry x="470" y="370" width="160" height="80" as="geometry" />
        </mxCell>
        <mxCell id="8KLHfao8B2fxPnTa-pXK-12" value="&lt;span style=&quot;font-size: 18px&quot;&gt;&lt;b&gt;ext2_readdir&lt;/b&gt;&lt;/span&gt;" style="ellipse;whiteSpace=wrap;html=1;" vertex="1" parent="1">
          <mxGeometry x="470" y="480" width="160" height="80" as="geometry" />
        </mxCell>
        <mxCell id="8KLHfao8B2fxPnTa-pXK-13" value="&lt;span style=&quot;font-size: 18px&quot;&gt;&lt;b&gt;inode_unlock_&lt;br&gt;shared&lt;/b&gt;&lt;/span&gt;" style="ellipse;whiteSpace=wrap;html=1;" vertex="1" parent="1">
          <mxGeometry x="470" y="590" width="160" height="80" as="geometry" />
        </mxCell>
        <mxCell id="8KLHfao8B2fxPnTa-pXK-14" value="&lt;span style=&quot;font-size: 18px&quot;&gt;&lt;b&gt;inode_eq_&lt;br&gt;iversion&lt;/b&gt;&lt;/span&gt;" style="ellipse;whiteSpace=wrap;html=1;" vertex="1" parent="1">
          <mxGeometry x="750" y="310" width="160" height="80" as="geometry" />
        </mxCell>
        <mxCell id="8KLHfao8B2fxPnTa-pXK-18" value="" style="curved=1;endArrow=classic;html=1;rounded=0;fontSize=18;exitX=1;exitY=0.5;exitDx=0;exitDy=0;" edge="1" parent="1" source="8KLHfao8B2fxPnTa-pXK-4">
          <mxGeometry width="50" height="50" relative="1" as="geometry">
            <mxPoint x="190" y="180" as="sourcePoint" />
            <mxPoint x="240" y="130" as="targetPoint" />
            <Array as="points">
              <mxPoint x="200" y="140" />
            </Array>
          </mxGeometry>
        </mxCell>
        <mxCell id="8KLHfao8B2fxPnTa-pXK-20" value="" style="curved=1;endArrow=classic;html=1;rounded=0;fontSize=18;exitX=1;exitY=0.5;exitDx=0;exitDy=0;" edge="1" parent="1" source="8KLHfao8B2fxPnTa-pXK-4">
          <mxGeometry width="50" height="50" relative="1" as="geometry">
            <mxPoint x="190" y="410" as="sourcePoint" />
            <mxPoint x="240" y="360" as="targetPoint" />
            <Array as="points">
              <mxPoint x="200" y="290" />
              <mxPoint x="210" y="350" />
            </Array>
          </mxGeometry>
        </mxCell>
        <mxCell id="8KLHfao8B2fxPnTa-pXK-21" value="" style="curved=1;endArrow=classic;html=1;rounded=0;fontSize=18;exitX=1;exitY=0.5;exitDx=0;exitDy=0;" edge="1" parent="1" source="8KLHfao8B2fxPnTa-pXK-7">
          <mxGeometry width="50" height="50" relative="1" as="geometry">
            <mxPoint x="420" y="120" as="sourcePoint" />
            <mxPoint x="470" y="70" as="targetPoint" />
            <Array as="points">
              <mxPoint x="430" y="90" />
            </Array>
          </mxGeometry>
        </mxCell>
        <mxCell id="8KLHfao8B2fxPnTa-pXK-22" value="" style="curved=1;endArrow=classic;html=1;rounded=0;fontSize=18;" edge="1" parent="1">
          <mxGeometry width="50" height="50" relative="1" as="geometry">
            <mxPoint x="400" y="240" as="sourcePoint" />
            <mxPoint x="470" y="190" as="targetPoint" />
            <Array as="points">
              <mxPoint x="420" y="190" />
            </Array>
          </mxGeometry>
        </mxCell>
        <mxCell id="8KLHfao8B2fxPnTa-pXK-23" value="" style="curved=1;endArrow=classic;html=1;rounded=0;fontSize=18;" edge="1" parent="1">
          <mxGeometry width="50" height="50" relative="1" as="geometry">
            <mxPoint x="400" y="240" as="sourcePoint" />
            <mxPoint x="470" y="300" as="targetPoint" />
            <Array as="points">
              <mxPoint x="400" y="270" />
              <mxPoint x="430" y="310" />
            </Array>
          </mxGeometry>
        </mxCell>
        <mxCell id="8KLHfao8B2fxPnTa-pXK-24" value="" style="curved=1;endArrow=classic;html=1;rounded=0;fontSize=18;" edge="1" parent="1">
          <mxGeometry width="50" height="50" relative="1" as="geometry">
            <mxPoint x="400" y="240" as="sourcePoint" />
            <mxPoint x="470" y="410" as="targetPoint" />
            <Array as="points">
              <mxPoint x="410" y="360" />
            </Array>
          </mxGeometry>
        </mxCell>
        <mxCell id="8KLHfao8B2fxPnTa-pXK-25" value="" style="curved=1;endArrow=classic;html=1;rounded=0;fontSize=18;exitX=1;exitY=0.5;exitDx=0;exitDy=0;" edge="1" parent="1" source="8KLHfao8B2fxPnTa-pXK-7">
          <mxGeometry width="50" height="50" relative="1" as="geometry">
            <mxPoint x="400" y="230" as="sourcePoint" />
            <mxPoint x="470" y="520" as="targetPoint" />
            <Array as="points">
              <mxPoint x="420" y="490" />
            </Array>
          </mxGeometry>
        </mxCell>
        <mxCell id="8KLHfao8B2fxPnTa-pXK-26" value="" style="curved=1;endArrow=classic;html=1;rounded=0;fontSize=18;" edge="1" parent="1">
          <mxGeometry width="50" height="50" relative="1" as="geometry">
            <mxPoint x="400" y="240" as="sourcePoint" />
            <mxPoint x="470" y="630" as="targetPoint" />
            <Array as="points">
              <mxPoint x="420" y="630" />
            </Array>
          </mxGeometry>
        </mxCell>
        <mxCell id="8KLHfao8B2fxPnTa-pXK-27" value="" style="curved=1;endArrow=classic;html=1;rounded=0;fontSize=18;exitX=1;exitY=0;exitDx=0;exitDy=0;entryX=1;entryY=0.5;entryDx=0;entryDy=0;" edge="1" parent="1" source="8KLHfao8B2fxPnTa-pXK-12" target="8KLHfao8B2fxPnTa-pXK-8">
          <mxGeometry width="50" height="50" relative="1" as="geometry">
            <mxPoint x="650" y="400" as="sourcePoint" />
            <mxPoint x="700" y="350" as="targetPoint" />
            <Array as="points">
              <mxPoint x="670" y="420" />
              <mxPoint x="670" y="200" />
            </Array>
          </mxGeometry>
        </mxCell>
        <mxCell id="8KLHfao8B2fxPnTa-pXK-28" value="&lt;span style=&quot;font-size: 18px&quot;&gt;&lt;b&gt;ext2_get_page&lt;/b&gt;&lt;/span&gt;" style="ellipse;whiteSpace=wrap;html=1;" vertex="1" parent="1">
          <mxGeometry x="750" y="430" width="160" height="80" as="geometry" />
        </mxCell>
        <mxCell id="8KLHfao8B2fxPnTa-pXK-29" value="&lt;span style=&quot;font-size: 18px&quot;&gt;&lt;b&gt;ext2_put_page&lt;/b&gt;&lt;/span&gt;" style="ellipse;whiteSpace=wrap;html=1;" vertex="1" parent="1">
          <mxGeometry x="730" y="770" width="160" height="80" as="geometry" />
        </mxCell>
        <mxCell id="8KLHfao8B2fxPnTa-pXK-30" value="&lt;span style=&quot;font-size: 18px&quot;&gt;&lt;b&gt;fs_ftype_to_dtype&lt;/b&gt;&lt;/span&gt;" style="ellipse;whiteSpace=wrap;html=1;" vertex="1" parent="1">
          <mxGeometry x="750" y="545" width="160" height="80" as="geometry" />
        </mxCell>
        <mxCell id="8KLHfao8B2fxPnTa-pXK-31" value="&lt;span style=&quot;font-size: 18px&quot;&gt;&lt;b&gt;dir_emit&lt;/b&gt;&lt;/span&gt;" style="ellipse;whiteSpace=wrap;html=1;" vertex="1" parent="1">
          <mxGeometry x="740" y="650" width="160" height="80" as="geometry" />
        </mxCell>
        <mxCell id="8KLHfao8B2fxPnTa-pXK-32" value="&lt;span style=&quot;font-size: 18px&quot;&gt;&lt;b&gt;filldir&lt;/b&gt;&lt;/span&gt;" style="ellipse;whiteSpace=wrap;html=1;" vertex="1" parent="1">
          <mxGeometry x="940" y="370" width="160" height="80" as="geometry" />
        </mxCell>
        <mxCell id="8KLHfao8B2fxPnTa-pXK-33" value="&lt;span style=&quot;font-size: 18px&quot;&gt;&lt;b&gt;verify_dirent_&lt;br&gt;name&lt;/b&gt;&lt;/span&gt;" style="ellipse;whiteSpace=wrap;html=1;" vertex="1" parent="1">
          <mxGeometry x="1150" y="120" width="160" height="80" as="geometry" />
        </mxCell>
        <mxCell id="8KLHfao8B2fxPnTa-pXK-34" value="&lt;span style=&quot;font-size: 18px&quot;&gt;&lt;b&gt;signal_pending&lt;/b&gt;&lt;/span&gt;" style="ellipse;whiteSpace=wrap;html=1;" vertex="1" parent="1">
          <mxGeometry x="1150" y="250" width="160" height="80" as="geometry" />
        </mxCell>
        <mxCell id="8KLHfao8B2fxPnTa-pXK-35" value="&lt;span style=&quot;font-size: 18px&quot;&gt;&lt;b&gt;user_write_&lt;br&gt;access_begin&lt;/b&gt;&lt;/span&gt;" style="ellipse;whiteSpace=wrap;html=1;" vertex="1" parent="1">
          <mxGeometry x="1150" y="380" width="160" height="80" as="geometry" />
        </mxCell>
        <mxCell id="8KLHfao8B2fxPnTa-pXK-36" value="&lt;span style=&quot;font-size: 18px&quot;&gt;&lt;b&gt;unsafe_put_user&lt;/b&gt;&lt;/span&gt;" style="ellipse;whiteSpace=wrap;html=1;" vertex="1" parent="1">
          <mxGeometry x="1150" y="500" width="160" height="80" as="geometry" />
        </mxCell>
        <mxCell id="8KLHfao8B2fxPnTa-pXK-37" value="&lt;span style=&quot;font-size: 18px&quot;&gt;&lt;b&gt;user_write_&lt;br&gt;access_end&lt;/b&gt;&lt;/span&gt;" style="ellipse;whiteSpace=wrap;html=1;" vertex="1" parent="1">
          <mxGeometry x="1150" y="630" width="160" height="80" as="geometry" />
        </mxCell>
        <mxCell id="8KLHfao8B2fxPnTa-pXK-38" value="" style="curved=1;endArrow=classic;html=1;rounded=0;fontSize=18;entryX=0;entryY=0.5;entryDx=0;entryDy=0;exitX=0.967;exitY=0.279;exitDx=0;exitDy=0;exitPerimeter=0;" edge="1" parent="1" source="8KLHfao8B2fxPnTa-pXK-12" target="8KLHfao8B2fxPnTa-pXK-14">
          <mxGeometry width="50" height="50" relative="1" as="geometry">
            <mxPoint x="690" y="400" as="sourcePoint" />
            <mxPoint x="740" y="350" as="targetPoint" />
            <Array as="points">
              <mxPoint x="690" y="410" />
            </Array>
          </mxGeometry>
        </mxCell>
        <mxCell id="8KLHfao8B2fxPnTa-pXK-39" value="" style="curved=1;endArrow=classic;html=1;rounded=0;fontSize=18;entryX=0;entryY=0.5;entryDx=0;entryDy=0;exitX=1;exitY=0.5;exitDx=0;exitDy=0;" edge="1" parent="1" source="8KLHfao8B2fxPnTa-pXK-12" target="8KLHfao8B2fxPnTa-pXK-28">
          <mxGeometry width="50" height="50" relative="1" as="geometry">
            <mxPoint x="670" y="540" as="sourcePoint" />
            <mxPoint x="720" y="490" as="targetPoint" />
            <Array as="points">
              <mxPoint x="720" y="470" />
            </Array>
          </mxGeometry>
        </mxCell>
        <mxCell id="8KLHfao8B2fxPnTa-pXK-40" value="" style="curved=1;endArrow=classic;html=1;rounded=0;fontSize=18;entryX=0;entryY=0.5;entryDx=0;entryDy=0;exitX=0.983;exitY=0.662;exitDx=0;exitDy=0;exitPerimeter=0;" edge="1" parent="1" source="8KLHfao8B2fxPnTa-pXK-12" target="8KLHfao8B2fxPnTa-pXK-30">
          <mxGeometry width="50" height="50" relative="1" as="geometry">
            <mxPoint x="630" y="540" as="sourcePoint" />
            <mxPoint x="730" y="590" as="targetPoint" />
            <Array as="points">
              <mxPoint x="670" y="560" />
            </Array>
          </mxGeometry>
        </mxCell>
        <mxCell id="8KLHfao8B2fxPnTa-pXK-41" value="" style="curved=1;endArrow=classic;html=1;rounded=0;fontSize=18;entryX=0;entryY=0.5;entryDx=0;entryDy=0;exitX=0.933;exitY=0.779;exitDx=0;exitDy=0;exitPerimeter=0;" edge="1" parent="1" source="8KLHfao8B2fxPnTa-pXK-12" target="8KLHfao8B2fxPnTa-pXK-31">
          <mxGeometry width="50" height="50" relative="1" as="geometry">
            <mxPoint x="670" y="740" as="sourcePoint" />
            <mxPoint x="720" y="690" as="targetPoint" />
            <Array as="points">
              <mxPoint x="680" y="670" />
            </Array>
          </mxGeometry>
        </mxCell>
        <mxCell id="8KLHfao8B2fxPnTa-pXK-42" value="" style="curved=1;endArrow=classic;html=1;rounded=0;fontSize=18;entryX=0;entryY=0.5;entryDx=0;entryDy=0;exitX=1;exitY=1;exitDx=0;exitDy=0;" edge="1" parent="1" source="8KLHfao8B2fxPnTa-pXK-12" target="8KLHfao8B2fxPnTa-pXK-29">
          <mxGeometry width="50" height="50" relative="1" as="geometry">
            <mxPoint x="630" y="520" as="sourcePoint" />
            <mxPoint x="670" y="800" as="targetPoint" />
            <Array as="points">
              <mxPoint x="690" y="760" />
            </Array>
          </mxGeometry>
        </mxCell>
        <mxCell id="8KLHfao8B2fxPnTa-pXK-43" value="" style="curved=1;endArrow=classic;html=1;rounded=0;fontSize=18;entryX=0;entryY=1;entryDx=0;entryDy=0;exitX=1;exitY=0.5;exitDx=0;exitDy=0;" edge="1" parent="1" source="8KLHfao8B2fxPnTa-pXK-31" target="8KLHfao8B2fxPnTa-pXK-32">
          <mxGeometry width="50" height="50" relative="1" as="geometry">
            <mxPoint x="940" y="530" as="sourcePoint" />
            <mxPoint x="990" y="480" as="targetPoint" />
            <Array as="points">
              <mxPoint x="960" y="490" />
            </Array>
          </mxGeometry>
        </mxCell>
        <mxCell id="8KLHfao8B2fxPnTa-pXK-44" value="" style="curved=1;endArrow=classic;html=1;rounded=0;fontSize=18;entryX=0;entryY=0.5;entryDx=0;entryDy=0;exitX=1;exitY=0;exitDx=0;exitDy=0;" edge="1" parent="1" source="8KLHfao8B2fxPnTa-pXK-32" target="8KLHfao8B2fxPnTa-pXK-33">
          <mxGeometry width="50" height="50" relative="1" as="geometry">
            <mxPoint x="1060" y="250" as="sourcePoint" />
            <mxPoint x="1110" y="200" as="targetPoint" />
            <Array as="points">
              <mxPoint x="1080" y="270" />
              <mxPoint x="1110" y="200" />
            </Array>
          </mxGeometry>
        </mxCell>
        <mxCell id="8KLHfao8B2fxPnTa-pXK-45" value="" style="curved=1;endArrow=classic;html=1;rounded=0;fontSize=18;entryX=0;entryY=0.5;entryDx=0;entryDy=0;exitX=0.958;exitY=0.321;exitDx=0;exitDy=0;exitPerimeter=0;" edge="1" parent="1" source="8KLHfao8B2fxPnTa-pXK-32" target="8KLHfao8B2fxPnTa-pXK-34">
          <mxGeometry width="50" height="50" relative="1" as="geometry">
            <mxPoint x="1090" y="390" as="sourcePoint" />
            <mxPoint x="1140" y="340" as="targetPoint" />
            <Array as="points">
              <mxPoint x="1120" y="320" />
            </Array>
          </mxGeometry>
        </mxCell>
        <mxCell id="8KLHfao8B2fxPnTa-pXK-46" value="" style="curved=1;endArrow=classic;html=1;rounded=0;fontSize=18;entryX=0;entryY=0.5;entryDx=0;entryDy=0;exitX=1;exitY=0.5;exitDx=0;exitDy=0;" edge="1" parent="1" source="8KLHfao8B2fxPnTa-pXK-32" target="8KLHfao8B2fxPnTa-pXK-35">
          <mxGeometry width="50" height="50" relative="1" as="geometry">
            <mxPoint x="1080" y="510" as="sourcePoint" />
            <mxPoint x="1130" y="460" as="targetPoint" />
            <Array as="points">
              <mxPoint x="1120" y="430" />
            </Array>
          </mxGeometry>
        </mxCell>
        <mxCell id="8KLHfao8B2fxPnTa-pXK-47" value="" style="curved=1;endArrow=classic;html=1;rounded=0;fontSize=18;entryX=0;entryY=0.5;entryDx=0;entryDy=0;exitX=0.942;exitY=0.737;exitDx=0;exitDy=0;exitPerimeter=0;" edge="1" parent="1" source="8KLHfao8B2fxPnTa-pXK-32" target="8KLHfao8B2fxPnTa-pXK-36">
          <mxGeometry width="50" height="50" relative="1" as="geometry">
            <mxPoint x="1060" y="570" as="sourcePoint" />
            <mxPoint x="1110" y="520" as="targetPoint" />
            <Array as="points">
              <mxPoint x="1120" y="520" />
            </Array>
          </mxGeometry>
        </mxCell>
        <mxCell id="8KLHfao8B2fxPnTa-pXK-48" value="" style="curved=1;endArrow=classic;html=1;rounded=0;fontSize=18;entryX=0;entryY=0.5;entryDx=0;entryDy=0;exitX=1;exitY=1;exitDx=0;exitDy=0;" edge="1" parent="1" source="8KLHfao8B2fxPnTa-pXK-32" target="8KLHfao8B2fxPnTa-pXK-37">
          <mxGeometry width="50" height="50" relative="1" as="geometry">
            <mxPoint x="1040" y="710" as="sourcePoint" />
            <mxPoint x="1090" y="660" as="targetPoint" />
            <Array as="points">
              <mxPoint x="1100" y="610" />
            </Array>
          </mxGeometry>
        </mxCell>
      </root>
    </mxGraphModel>
  </diagram>
</mxfile>
